<svg id="visual" viewBox="0 0 900 600" width="900" height="600" xmlns="http://www.w3.org/2000/svg" xmlns:xlink="http://www.w3.org/1999/xlink" version="1.1"><path d="M0 502L11.5 504.2C23 506.3 46 510.7 69 512.2C92 513.7 115 512.3 138.2 513.3C161.3 514.3 184.7 517.7 207.8 516.3C231 515 254 509 277 506.7C300 504.3 323 505.7 346 507.7C369 509.7 392 512.3 415.2 514.5C438.3 516.7 461.7 518.3 484.8 519.2C508 520 531 520 554 519.3C577 518.7 600 517.3 623 514.2C646 511 669 506 692.2 507.7C715.3 509.3 738.7 517.7 761.8 518.7C785 519.7 808 513.3 831 511.8C854 510.3 877 513.7 888.5 515.3L900 517L900 601L888.5 601C877 601 854 601 831 601C808 601 785 601 761.8 601C738.7 601 715.3 601 692.2 601C669 601 646 601 623 601C600 601 577 601 554 601C531 601 508 601 484.8 601C461.7 601 438.3 601 415.2 601C392 601 369 601 346 601C323 601 300 601 277 601C254 601 231 601 207.8 601C184.7 601 161.3 601 138.2 601C115 601 92 601 69 601C46 601 23 601 11.5 601L0 601Z" fill="#f77e23"></path><path d="M0 540L11.5 538.3C23 536.7 46 533.3 69 532C92 530.7 115 531.3 138.2 533.3C161.3 535.3 184.7 538.7 207.8 538.3C231 538 254 534 277 533.2C300 532.3 323 534.7 346 533.3C369 532 392 527 415.2 523.8C438.3 520.7 461.7 519.3 484.8 519C508 518.7 531 519.3 554 520.5C577 521.7 600 523.3 623 525C646 526.7 669 528.3 692.2 529.2C715.3 530 738.7 530 761.8 531.2C785 532.3 808 534.7 831 532.3C854 530 877 523 888.5 519.5L900 516L900 601L888.5 601C877 601 854 601 831 601C808 601 785 601 761.8 601C738.7 601 715.3 601 692.2 601C669 601 646 601 623 601C600 601 577 601 554 601C531 601 508 601 484.8 601C461.7 601 438.3 601 415.2 601C392 601 369 601 346 601C323 601 300 601 277 601C254 601 231 601 207.8 601C184.7 601 161.3 601 138.2 601C115 601 92 601 69 601C46 601 23 601 11.5 601L0 601Z" fill="#f46338"></path><path d="M0 548L11.5 549C23 550 46 552 69 549.8C92 547.7 115 541.3 138.2 540.8C161.3 540.3 184.7 545.7 207.8 548.3C231 551 254 551 277 550.7C300 550.3 323 549.7 346 548.3C369 547 392 545 415.2 545C438.3 545 461.7 547 484.8 545.7C508 544.3 531 539.7 554 538C577 536.3 600 537.7 623 541.2C646 544.7 669 550.3 692.2 551.5C715.3 552.7 738.7 549.3 761.8 545.7C785 542 808 538 831 536.5C854 535 877 536 888.5 536.5L900 537L900 601L888.5 601C877 601 854 601 831 601C808 601 785 601 761.8 601C738.7 601 715.3 601 692.2 601C669 601 646 601 623 601C600 601 577 601 554 601C531 601 508 601 484.8 601C461.7 601 438.3 601 415.2 601C392 601 369 601 346 601C323 601 300 601 277 601C254 601 231 601 207.8 601C184.7 601 161.3 601 138.2 601C115 601 92 601 69 601C46 601 23 601 11.5 601L0 601Z" fill="#eb4a4a"></path><path d="M0 561L11.5 559.5C23 558 46 555 69 555.8C92 556.7 115 561.3 138.2 561.8C161.3 562.3 184.7 558.7 207.8 556.5C231 554.3 254 553.7 277 553.8C300 554 323 555 346 555.3C369 555.7 392 555.3 415.2 558C438.3 560.7 461.7 566.3 484.8 569.3C508 572.3 531 572.7 554 570C577 567.3 600 561.7 623 558.8C646 556 669 556 692.2 555.7C715.3 555.3 738.7 554.7 761.8 554.3C785 554 808 554 831 555.7C854 557.3 877 560.7 888.5 562.3L900 564L900 601L888.5 601C877 601 854 601 831 601C808 601 785 601 761.8 601C738.7 601 715.3 601 692.2 601C669 601 646 601 623 601C600 601 577 601 554 601C531 601 508 601 484.8 601C461.7 601 438.3 601 415.2 601C392 601 369 601 346 601C323 601 300 601 277 601C254 601 231 601 207.8 601C184.7 601 161.3 601 138.2 601C115 601 92 601 69 601C46 601 23 601 11.5 601L0 601Z" fill="#dc335a"></path><path d="M0 582L11.5 579.8C23 577.7 46 573.3 69 571.8C92 570.3 115 571.7 138.2 574.5C161.3 577.3 184.7 581.7 207.8 584C231 586.3 254 586.7 277 586.7C300 586.7 323 586.3 346 586.5C369 586.7 392 587.3 415.2 586.5C438.3 585.7 461.7 583.3 484.8 581.8C508 580.3 531 579.7 554 580C577 580.3 600 581.7 623 582.2C646 582.7 669 582.3 692.2 581.7C715.3 581 738.7 580 761.8 579.8C785 579.7 808 580.3 831 581.3C854 582.3 877 583.7 888.5 584.3L900 585L900 601L888.5 601C877 601 854 601 831 601C808 601 785 601 761.8 601C738.7 601 715.3 601 692.2 601C669 601 646 601 623 601C600 601 577 601 554 601C531 601 508 601 484.8 601C461.7 601 438.3 601 415.2 601C392 601 369 601 346 601C323 601 300 601 277 601C254 601 231 601 207.8 601C184.7 601 161.3 601 138.2 601C115 601 92 601 69 601C46 601 23 601 11.5 601L0 601Z" fill="#c62368"></path></svg>