<?xml version="1.0" standalone="no"?><svg xmlns="http://www.w3.org/2000/svg" viewBox="0 0 1440 320"><path fill="#f77e23" fill-opacity="1" d="M0,32L26.7,53.3C53.3,75,107,117,160,138.7C213.3,160,267,160,320,170.7C373.3,181,427,203,480,181.3C533.3,160,587,96,640,106.7C693.3,117,747,203,800,224C853.3,245,907,203,960,165.3C1013.3,128,1067,96,1120,101.3C1173.3,107,1227,149,1280,176C1333.3,203,1387,213,1413,218.7L1440,224L1440,320L1413.3,320C1386.7,320,1333,320,1280,320C1226.7,320,1173,320,1120,320C1066.7,320,1013,320,960,320C906.7,320,853,320,800,320C746.7,320,693,320,640,320C586.7,320,533,320,480,320C426.7,320,373,320,320,320C266.7,320,213,320,160,320C106.7,320,53,320,27,320L0,320Z"></path></svg>