<?xml version="1.0" standalone="no"?><svg xmlns="http://www.w3.org/2000/svg" viewBox="0 0 1440 320"><path fill="#f77e23" fill-opacity="0.5" d="M0,64L30,80C60,96,120,128,180,160C240,192,300,224,360,234.7C420,245,480,235,540,234.7C600,235,660,245,720,245.3C780,245,840,235,900,202.7C960,171,1020,117,1080,101.3C1140,85,1200,107,1260,112C1320,117,1380,107,1410,101.3L1440,96L1440,320L1410,320C1380,320,1320,320,1260,320C1200,320,1140,320,1080,320C1020,320,960,320,900,320C840,320,780,320,720,320C660,320,600,320,540,320C480,320,420,320,360,320C300,320,240,320,180,320C120,320,60,320,30,320L0,320Z"></path></svg>